<svg id="Capa_1" enable-background="new 0 0 512.001 512.001" height="512" viewBox="0 0 512.001 512.001" width="512" xmlns="http://www.w3.org/2000/svg"><path d="m483.072 466.646-35.356-35.356 21.213-21.213c2.45-2.451 3.458-5.996 2.661-9.369-.796-3.373-3.282-6.093-6.57-7.189l-35.991-11.997c36.847-41.947 56.973-95.16 56.973-151.521 0-61.436-23.924-119.193-67.365-162.635-43.443-43.442-101.201-67.366-162.636-67.366-44.941 0-88.493 12.98-125.947 37.538-4.618 3.028-5.907 9.228-2.879 13.846s9.227 5.909 13.846 2.879c34.186-22.415 73.945-34.263 114.98-34.263 115.794 0 210 94.206 210 210 0 54.304-20.46 105.409-57.735 144.601l-21.185-7.062c37.641-35.781 58.919-84.977 58.919-137.539 0-104.767-85.233-190-190-190s-190 85.233-190 190 85.233 190 190 190c28.303 0 56.308-6.346 81.698-18.436l6.371 19.114c-27.626 12.813-57.206 19.322-88.068 19.322-115.794 0-210-94.206-210-210 0-41.039 11.847-80.797 34.26-114.975 3.028-4.619 1.74-10.817-2.879-13.846-4.619-3.03-10.817-1.74-13.846 2.878-24.556 37.446-37.535 80.996-37.535 125.943 0 61.435 23.924 119.193 67.365 162.635 43.441 43.441 101.2 67.365 162.635 67.365 33.039 0 64.745-6.816 94.431-20.238l17.086 51.258c1.097 3.288 3.816 5.774 7.189 6.57 3.376.798 6.918-.211 9.369-2.661l21.213-21.213 35.356 35.357c1.953 1.953 4.512 2.929 7.071 2.929s5.118-.976 7.071-2.929l28.284-28.284c3.906-3.906 3.906-10.238.001-14.143zm-227.071-66.646c-93.738 0-170-76.262-170-170s76.262-170 170-170 170 76.262 170 170c0 50.654-22.08 97.823-60.764 130.257l-27.496-9.165c-3.591-1.199-7.555-.263-10.233 2.416s-3.613 6.64-2.416 10.233l6.223 18.669c-23.295 11.516-49.155 17.59-75.314 17.59zm191.715 87.859-35.356-35.357c-1.953-1.953-4.512-2.929-7.071-2.929s-5.118.976-7.071 2.929l-16.843 16.843-30.984-92.955 92.954 30.984-16.843 16.843c-3.905 3.906-3.905 10.237 0 14.143l35.356 35.356z"/><path d="m256.001 310.399c-19.299 0-35 15.701-35 35s15.701 35 35 35 35-15.701 35-35-15.702-35-35-35zm0 50c-8.271 0-15-6.729-15-15s6.729-15 15-15 15 6.729 15 15-6.729 15-15 15z"/><path d="m317.553 105.099c-16.443-16.442-38.303-25.498-61.553-25.498-23.251 0-45.11 9.056-61.552 25.498-16.443 16.444-25.499 38.303-25.499 61.552 0 19.299 15.701 35 35 35s35-15.701 35-35c0-4.557 1.772-8.839 4.991-12.058 3.221-3.22 7.503-4.993 12.06-4.993s8.84 1.773 12.059 4.993c3.22 3.219 4.992 7.501 4.992 12.058 0 7.353-5.269 12.712-13.865 20.848-17.898 16.939-38.186 36.138-38.186 77.9 0 19.299 15.701 35 35 35s35-15.701 35-35c0-11.412 6.123-17.787 16.113-27.241 16.845-15.942 35.938-34.011 35.938-71.506 0-23.251-9.055-45.11-25.498-61.553zm-24.187 118.532c-9.964 9.43-22.365 21.167-22.365 41.767 0 8.271-6.729 15-15 15s-15-6.729-15-15c0-33.153 14.798-47.158 31.934-63.374 9.43-8.924 20.117-19.039 20.117-35.374 0-9.899-3.854-19.204-10.85-26.2-6.996-6.997-16.302-10.851-26.201-10.851-9.898 0-19.203 3.853-26.201 10.85-6.996 6.997-10.85 16.302-10.85 26.201 0 8.271-6.729 15-15 15s-15-6.729-15-15c0-17.907 6.976-34.744 19.642-47.41 12.664-12.665 29.501-19.64 47.409-19.64s34.745 6.975 47.41 19.641c12.665 12.665 19.641 29.502 19.641 47.41-.001 28.886-13.757 41.905-29.686 56.98z"/><path d="m100.433 84.438c2.561 0 5.122-.977 7.075-2.93 3.905-3.905 3.905-10.237 0-14.142-3.906-3.905-10.236-3.905-14.143 0l-.005.005c-3.905 3.905-3.902 10.234.003 14.139 1.953 1.952 4.512 2.928 7.07 2.928z"/></svg>