<svg xmlns="http://www.w3.org/2000/svg" viewBox="0 0 512 512"><defs/><path d="M490 360h-56l10-54a12 12 0 00-6-13l5-23c0-4-1-8-4-11l35-198c2-12-6-23-18-26-11-2-24 6-26 19l-14 78a8 8 0 0015 3l14-79a8 8 0 0115 3l-35 195-15-2 15-83a8 8 0 00-15-2l-15 85c-3 1-6 5-7 9l-4 23c-4 1-8 5-9 10l-12 66h-79a8 8 0 000 15h205c5 0 8 3 8 8v60c0 4-3 7-8 7H22c-4 0-7-3-7-7v-60c0-5 3-8 7-8h227a8 8 0 000-15h-99l-12-67c-1-6-5-9-10-10l-4-24c0-2-2-7-7-9L83 52c-2-11-14-20-26-18-11 2-21 14-19 26l35 198c-2 3-4 7-3 11l4 23c-4 3-6 8-5 13l9 55H22c-12 0-22 10-22 23v60c0 12 10 22 22 22h8v18c0 6 6 12 12 12h49a8 8 0 000-15H45v-15h422v15H126a8 8 0 000 15h344c6 0 12-6 12-12v-18h8c12 0 22-10 22-22v-60c0-13-10-23-22-23zm-91-75l4-19 24 4-3 20zm-10 14l40 7-10 54h-41zM89 288l-4-19 25-5 3 20zM54 52c1-2 3-3 5-3 3-1 8 1 9 6l34 196-14 2L53 58l1-6zm30 253l39-7 11 62H94z"/><path d="M482 413a23 23 0 10-45 0 23 23 0 0045 0zm-30 0a8 8 0 1115 0 8 8 0 01-15 0zM422 413a23 23 0 10-45 0 23 23 0 0045 0zm-30 0a8 8 0 1115 0 8 8 0 01-15 0zM362 413a23 23 0 10-45 0 23 23 0 0045 0zm-30 0a8 8 0 1115 0 8 8 0 01-15 0zM30 413a23 23 0 1045 0 23 23 0 00-45 0zm30 0a8 8 0 11-15 0 8 8 0 0115 0zM90 413a23 23 0 1045 0 23 23 0 00-45 0zm30 0a8 8 0 11-15 0 8 8 0 0115 0zM170 412c0 5 3 8 7 8h98a8 8 0 000-15h-98c-4 0-7 3-7 7zM256 187a28 28 0 100 55 28 28 0 000-55zm0 40a13 13 0 110-25 13 13 0 010 25z"/><path d="M325 175c6-10 3-24-8-31-38-23-84-23-122 0-11 7-14 21-8 31s20 15 31 8c24-14 52-14 76 0 9 6 24 3 31-8zm-13-7c-2 2-5 5-11 2a87 87 0 00-90 0c-2 1-8 2-11-2-1-2-2-8 3-11a102 102 0 01106 0c3 3 5 4 3 11z"/><path d="M361 130c5-9 3-24-8-31a186 186 0 00-194 0c-10 6-14 20-8 31 6 10 20 15 31 8 46-28 102-28 148 0 9 6 24 3 31-8zm-13-7c-3 2-6 5-11 2-50-31-112-31-162 0-2 1-8 2-11-2-2-4-1-9 3-11a171 171 0 01178 0c4 2 5 7 3 11z"/><path d="M147 93c67-42 151-42 218 0 10 6 25 3 31-8 6-9 4-24-7-31a254 254 0 00-192-30 7 7 0 103 15 240 240 0 01181 28c3 3 5 4 3 11-3 2-6 5-11 2-72-44-162-44-234 0-4 2-8 1-11-2-1-2-2-8 3-11 12-7 24-13 37-18a7 7 0 10-6-14c-13 5-27 12-39 19-10 6-14 20-7 31 6 11 20 14 31 8z"/></svg>