<svg id="Icons" height="512" viewBox="0 0 74 74" width="512" xmlns="http://www.w3.org/2000/svg"><path d="m3 60a1 1 0 0 1 -.662-1.75l24.93-22a1 1 0 0 1 1.324 1.5l-24.93 22a1 1 0 0 1 -.662.25z"/><path d="m21.5 60h-2.94a1 1 0 0 1 0-2h2.94a1 1 0 0 1 0 2z"/><path d="m71 60h-32.56a1 1 0 0 1 0-2h31.56v-42h-66v42h7.56a1 1 0 1 1 0 2h-8.56a1 1 0 0 1 -1-1v-44a1 1 0 0 1 1-1h68a1 1 0 0 1 1 1v44a1 1 0 0 1 -1 1z"/><path d="m31.44 60h-2.94a1 1 0 0 1 0-2h2.94a1 1 0 0 1 0 2z"/><path d="m37 41.364a14.841 14.841 0 0 1 -9.84-3.712l-24.822-21.902a1 1 0 1 1 1.324-1.5l24.822 21.9a12.89 12.89 0 0 0 17.032 0l24.822-21.9a1 1 0 1 1 1.324 1.5l-24.822 21.902a14.846 14.846 0 0 1 -9.84 3.712z"/><path d="m71 60a1 1 0 0 1 -.662-.25l-24.93-22a1 1 0 1 1 1.324-1.5l24.93 22a1 1 0 0 1 -.662 1.75z"/></svg>