<svg xmlns="http://www.w3.org/2000/svg" version="1.0" width="171.000000pt" height="171.000000pt" viewBox="0 0 171.000000 171.000000" preserveAspectRatio="xMidYMid meet">
<g transform="translate(0.000000,171.000000) scale(0.100000,-0.100000)" stroke="none">
<path d="M30 1700 c0 -40 148 -223 231 -287 121 -92 314 -159 365 -125 14 8 214 393 214 410 0 9 -103 12 -405 12 -276 0 -405 -3 -405 -10z"/>
<path d="M753 1486 l-112 -225 27 -48 c65 -117 171 -183 295 -183 l63 0 333 340 333 340 -414 0 -413 0 -112 -224z"/>
<path d="M1423 1412 c-155 -152 -307 -306 -339 -341 l-57 -64 6 -66 c2 -36 14 -86 24 -111 32 -71 154 -180 203 -180 11 0 117 48 235 107 l215 108 0 412 c0 227 -1 413 -2 413 -2 -1 -130 -125 -285 -278z"/>
<path d="M0 1266 l0 -385 65 -58 c95 -84 125 -98 214 -98 l74 0 38 70 c71 130 211 436 206 450 -3 7 -21 16 -39 20 -65 13 -164 48 -223 79 -67 35 -199 159 -264 249 -73 100 -71 107 -71 -327z"/>
<path d="M597 1158 c-118 -209 -230 -453 -223 -484 4 -13 27 -39 53 -59 37 -28 55 -35 91 -35 l46 0 194 194 c130 130 193 200 190 211 -2 12 -25 25 -69 39 -83 27 -135 61 -190 125 -24 28 -49 51 -56 51 -7 0 -23 -19 -36 -42z"/>
<path d="M948 923 c-55 -44 -287 -274 -329 -326 -50 -62 -52 -106 -9 -165 30 -42 57 -62 84 -62 8 0 127 55 265 122 170 82 251 127 251 137 0 9 -21 32 -47 51 -63 46 -128 144 -143 215 -13 63 -23 67 -72 28z"/>
<path d="M1490 737 l-205 -102 -3 -36 c-10 -119 96 -323 231 -445 59 -54 163 -124 184 -124 11 0 13 72 13 405 0 223 -3 405 -7 405 -5 0 -100 -47 -213 -103z"/>
<path d="M0 445 c0 -321 2 -375 15 -375 14 0 289 539 301 591 5 24 2 26 -53 38 -78 17 -138 44 -189 86 -78 64 -74 82 -74 -340z"/>
<path d="M327 617 c-35 -54 -227 -448 -227 -467 0 -11 6 -20 14 -20 14 0 371 363 389 396 10 17 -8 44 -28 44 -7 0 -36 16 -65 35 -29 19 -56 35 -60 35 -4 0 -15 -10 -23 -23z"/>
<path d="M979 483 l-254 -128 0 -75 c1 -63 5 -83 30 -128 15 -29 52 -75 81 -102 l53 -50 380 0 c309 0 381 3 381 13 0 7 -36 42 -81 77 -181 143 -276 291 -304 478 -4 24 -12 42 -20 42 -7 0 -127 -57 -266 -127z"/>
<path d="M477 453 c-137 -127 -337 -329 -337 -340 0 -7 7 -13 15 -13 24 0 476 230 481 245 3 7 -8 32 -25 55 -16 23 -35 57 -41 76 -6 19 -16 34 -22 34 -5 0 -37 -26 -71 -57z"/>
<path d="M385 187 c-289 -148 -305 -156 -305 -174 0 -10 79 -13 370 -13 298 0 370 3 370 13 0 7 -12 29 -26 48 -34 45 -94 168 -94 194 0 42 -12 65 -34 65 -11 -1 -138 -60 -281 -133z"/>
</g>
</svg>