<svg version="1.0" xmlns="http://www.w3.org/2000/svg" width="576" height="174" viewBox="0 0 5760 1740"><g id="layer101" fill="#0768a1" stroke="none"><path d="M460 1703c0-9 10-33 23-52 13-20 41-65 62-101 20-36 47-81 60-100 12-19 39-64 60-100 20-36 48-81 60-100 51-81 245-411 245-418 1-12 38-52 49-52 7 0 11 49 11 153v152l-35 54c-19 29-35 54-35 56 0 3-156 269-265 450l-41 70-97 3c-86 2-97 1-97-15zm1007 11c-9-9-9-1656-1-1678 5-13 24-16 105-16h99l-2 847-3 848-95 3c-53 1-99 0-103-4zm1248-6c-3-8-4-108-3-223l3-210h200v440l-98 3c-73 2-99-1-102-10zm1002 6c-4-4-7-103-7-219 0-170 3-215 14-224 9-8 45-11 98-9l83 3v450l-90 3c-50 1-94 0-98-4zm403-9c0-15 566-305 595-305 10 0 15 10 15 29 0 57 38 153 84 212 25 33 46 64 46 69 0 6-130 10-370 10-320 0-370-2-370-15z"/><path d="M4908 1693c-88-71-138-156-146-248-3-48-1-63 12-74 26-22 508-261 516-256 4 2 10 30 14 61 8 72 52 185 100 257 43 64 173 191 241 233 25 16 45 35 45 42 0 9-81 12-374 12h-373l-35-27z"/><path d="M5669 1649c-130-84-245-215-301-344-32-71-54-191-39-209 6-7 39-26 73-43 35-17 127-63 206-102l142-71v405c0 223-4 405-8 405-5 0-38-19-73-41zm-1629-374c0-270 3-375 11-375 6 0 26 13 45 29 55 49 115 79 184 92 36 7 69 16 75 21 12 11-285 608-302 608-10 0-13-80-13-375zm140 337c0-17 400-406 409-397 5 6 14 27 20 47 7 21 26 51 42 69 16 17 29 35 29 40 0 9-472 249-490 249-5 0-10-3-10-8zm-40-37c0-22 238-495 249-495 6 0 24 13 42 30 18 16 51 36 73 43s42 19 44 25c3 11-385 412-400 412-5 0-8-7-8-15zm575-235c-28-11-72-60-84-93-25-67-23-70 188-281 202-202 231-222 231-162 0 76 80 200 162 252 21 13 38 28 38 34 0 5-17 17-37 26-21 9-136 66-255 126-119 59-218 108-220 107-2 0-12-4-23-9zm-2945-92c0-12 6-29 14-37 7-9 25-36 39-61 35-64 74-128 107-180 17-25 33-52 37-60 27-57 76-130 88-130 13 0 15 25 15 148v147l-48 82c-71 119-61 113-163 113-85 0-89-1-89-22zm735 10c-2-7-6-284-8-615-3-422-1-605 6-612 6-6 52-11 109-11h98l-2 623-3 622-98 3c-72 2-98-1-102-10zm630 0c-3-7-4-191-3-408l3-395h190v810l-93 3c-68 2-94-1-97-10zm1387-126c-33-10-92-60-103-88-7-21 9-61 114-271 67-135 128-248 136-251 7-3 18 3 24 13 20 37 92 107 131 130 39 22 79 36 139 49 15 4 27 13 27 20 0 8-88 102-196 210-204 205-206 206-272 188z"/><path d="M5256 1048c-22-11-63-44-92-73-42-42-56-65-73-120-12-37-21-85-21-107 0-40 6-46 318-357 175-174 328-325 340-335l22-19v810l-222 112c-123 61-225 111-228 111-3-1-23-10-44-22zm-1021-66c-37-12-69-35-122-87l-73-71V447c0-295 3-377 13-377 6 0 25 20 41 45 42 68 169 198 233 241 70 46 181 90 252 100 29 4 55 13 58 19 5 14-219 477-245 508-19 22-89 22-157-1zm669-311c-83-28-139-77-188-163l-27-46 111-226 110-226h813l-19 22c-10 13-161 166-335 340l-317 318-48-1c-27 0-72-8-100-18zM3717 444c-4-4-7-101-7-216V20h200l-2 213-3 212-90 3c-50 1-94 0-98-4z"/><path d="M4600 433c-143-21-268-90-380-209-60-64-132-161-146-198-6-14 34-16 400-16 382 0 405 1 398 18-14 34-194 387-200 393-11 11-45 16-72 12z"/></g><path d="M20 1691c0-17 5-33 10-36 6-4 24-32 41-63 16-31 43-77 59-102s34-54 40-65c5-11 21-38 35-60 13-22 36-60 50-85s31-54 38-65c55-87 77-127 77-137 0-6 9-21 19-32 19-20 59-85 121-196 17-30 44-75 60-100s39-63 51-85 32-53 44-70c12-16 25-38 28-47 3-10 40-74 82-143 41-68 75-127 75-129 0-3 13-25 30-49 16-25 30-48 30-51 0-4 8-19 19-34 10-15 33-51 51-80l33-52h457v839c0 462-3 846-6 855-5 14-35 16-230 16h-224l-2-462c-3-385-5-459-16-438-7 14-28 50-47 80s-48 80-64 111c-17 31-43 76-58 100-41 65-50 80-78 129-14 25-41 70-60 100s-44 73-56 95-27 47-34 55-26 40-42 70-44 79-63 108l-35 52H20v-29zm1660-518V625l23-37c12-21 42-70 66-110 58-96 76-124 184-308l92-155 232-3 233-2 2 627 3 628 100 5 100 5 3 200c1 110 0 210-3 223l-5 22H1680v-547zm288 90l82-6v-230c0-177-3-228-12-219-12 12-40 59-103 172-20 36-51 90-70 120-31 50-85 144-93 163-4 9 84 9 196 0zm1072 450c-19-2-44-8-55-12-11-5-28-12-37-15-16-5-18-24-18-205v-200l-42-5c-24-4-70-7-103-9l-60-2-3-511-2-510 31-47c64-98 162-162 269-177 36-5 206-10 378-10h312l-2 222-3 223h-570l-2 395c-1 267 2 398 9 407 11 13 149 19 161 7 11-11 390-4 404 8 18 15 19 418 1 436-9 9-92 12-322 10-171 0-327-3-346-5z" id="layer102" fill="#e65d2f" stroke="none"/></svg>